<?xml version="1.0" ?><svg id="Layer_1" style="enable-background:new 0 0 52 52;" version="1.1" viewBox="0 0 52 52" xml:space="preserve" xmlns="http://www.w3.org/2000/svg" xmlns:xlink="http://www.w3.org/1999/xlink"><style type="text/css">
	.st0{fill:#231F20;}
</style><g><g><path class="st0" d="M37.2838287,47.2165794c0.6891632,2.2059479-15.575716,1.8579636-16.9940567,1.859272    c-2.6041851,0.0024071-5.2083712,0.0025215-7.8125572,0.0003471c-1.5800438-0.0013237-4.3304863,0.5450401-5.8594122-0.0087662    c-5.6409202-2.0432396-3.5497384-12.4563713-3.5650682-17.1702137c-0.0160701-4.9415302-0.0321405-9.8830605-0.0482106-14.8245888    c-0.0074995-2.3060484-0.0149989-4.6120958-0.0224984-6.9181433C2.9777398,8.8367453,2.9734545,7.5190043,2.9691691,6.201263    C4.113441,3.5815468,5.8902555,2.4852529,8.299613,2.9123809c4.4483814-0.8350997,10.4211988-0.4668806,14.9483232-0.1936939    c4.5993843,0.2775471,9.9785576,4.9219232,12.770977,8.6837959c1.9628487,2.6442976,1.8008347,4.9813004,1.7950439,8.238327    c-0.0044022,2.4768486-0.0088043,4.9536972-0.0132103,7.4305439c-0.0025749,1.4478741,2.2474213,1.4500504,2.25,0    c0.0102501-5.7648621,1.8089218-12.8569298-2.4408417-17.259861c-3.553215-3.6812763-7.951561-9.0140591-13.3654156-9.3557186    c-4.5892677-0.2896214-9.3474922,0.1211211-13.951767,0.1807811c-2.0632057,0.0267341-5.241302-0.464532-7.1585922,0.5732051    c-1.61885,0.8762056-2.1233501,2.0631886-2.3787849,3.8071837c-0.5663942,3.8670835-0.0134974,8.1579285-0.0008216,12.055686    c0.0278551,8.5653172,0.0557102,17.1306362,0.0835653,25.6959553c0.0145489,4.4737053-0.1795631,8.0417137,5.0850973,8.5191116    c8.1959267,0.743206,16.8492393,0.1188393,25.0795174,0.0118141c3.1215401-0.0405922,10.0181503,0.3360176,8.4507523-4.6810684    C39.023098,45.2409096,36.8503151,45.8289528,37.2838287,47.2165794L37.2838287,47.2165794z"/></g><g><path class="st0" d="M43.7241669,39.7451973c-1.9986191,4.0263214-7.1522369,6.1489677-11.2130127,3.6665344    c-1.9643631-1.2008553-2.7448215-3.2198486-3.0268574-5.4247513c-0.313839-2.4535294-0.5702724-4.4289017,1.7912464-5.8706055    c2.6157265-1.5969028,5.3508492-3.1296806,8.4823112-2.0247917c4.1542244,1.4657593,5.2288589,6.176342,3.8529053,9.9223518    c-0.4999962,1.3612251,1.6736984,1.9482956,2.1696243,0.5981407c1.7074966-4.6486206,0.1301079-10.1894913-4.5809479-12.3393192    c-2.1656723-0.9882755-4.6895027-1.1506214-6.9301453-0.3104877c-1.572258,0.5895233-3.0738926,1.6269226-4.5941753,2.3364868    c-0.8224678,0.3838711-1.5857792,0.6984158-2.054285,1.5320072c-1.1259346,2.0033169-0.6692352,5.5614262-0.1901951,7.7120686    c0.5526848,2.4812775,1.9626923,4.9529228,4.2861557,6.1614876c5.1918736,2.700592,11.4795666,0.1536903,13.9501858-4.8235054    C46.3087616,39.5879059,44.3687019,38.4467468,43.7241669,39.7451973z"/></g><g><path class="st0" d="M44.2451134,42.2409554c0.5085182,0.2639465,0.8074493,0.7372742,1.2650948,1.0669022    c0.3995514,0.2877846,0.8568039,0.4212074,1.2874222,0.6480484c1.1636009,0.6129532,2.0292473,1.5708961,2.3175087,2.8905602    c0.5491676,2.5140877-2.0413933,1.3789597-3.1665268,0.6424026c-1.2839584-0.8405304-2.4268875-1.8384209-3.4970093-2.9352188    c-1.0129471-1.0381966-2.6033096,0.5534363-1.590992,1.5909882c1.5862961,1.6258354,3.5961571,3.4872437,5.7572708,4.3005791    c1.5080872,0.5675735,3.9869995,0.3742104,4.6412201-1.3650551c0.6357803-1.6902313-0.0778046-3.8543358-1.1124077-5.223587    c-0.597393-0.7906189-1.3371735-1.3916817-2.2134438-1.8434792c-0.948658-0.4891205-1.6259384-1.234005-2.5525208-1.7149506    C44.0972443,39.6319466,42.9580917,41.5729218,44.2451134,42.2409554L44.2451134,42.2409554z"/></g><g><path class="st0" d="M25.7070694,3.0740116c-0.0660248,2.1496246-0.0676575,4.2987547,0.0272179,6.4476652    c0.0569115,1.2890348-0.2420006,3.5752439,0.7790604,4.5653086c0.9568863,0.9278383,2.9001408,0.7432814,4.0954437,0.7437658    c2.233181,0.000906,4.4664154-0.0081549,6.6995926-0.0122328c1.4476471-0.0026436,1.4502754-2.2526484,0-2.25    c-1.5763741,0.0028782-3.1527481,0.0057564-4.7291222,0.0086346c-1.0906963,0.0019922-3.2223721,0.3871193-4.0649719-0.3340597    c-0.8586216-0.734889-0.557045-3.1936007-0.5850487-4.332809c-0.0396404-1.6126285-0.0216866-3.2241688,0.0278282-4.8362732    C28.0015545,1.6256943,25.7515106,1.6271338,25.7070694,3.0740116L25.7070694,3.0740116z"/></g><g><path class="st0" d="M9.558526,14.1979504c3.916666,0,7.833333,0,11.749999,0c1.4477673,0,1.4501667-2.25,0-2.25    c-3.916666,0-7.833333,0-11.749999,0C8.1107578,11.9479504,8.1083603,14.1979504,9.558526,14.1979504    c3.916666,0,7.833333,0,11.749999,0c1.4477673,0,1.4501667-2.25,0-2.25c-3.916666,0-7.833333,0-11.749999,0    C8.1107578,11.9479504,8.1083603,14.1979504,9.558526,14.1979504z"/></g><g><path class="st0" d="M8.8082762,21.0077991c7.5833826-0.028986,15.1667643-0.057972,22.750145-0.0869579    c1.4475098-0.0055313,1.4503822-2.2555428,0-2.25c-7.5833817,0.028986-15.1667633,0.057972-22.750145,0.0869579    C7.3607688,18.7633324,7.357893,21.0133438,8.8082762,21.0077991L8.8082762,21.0077991z"/></g><g><path class="st0" d="M9.308526,27.0729504c7.416667,0,14.833333,0,22.25,0c1.4477692,0,1.4501648-2.25,0-2.25    c-7.416666,0-14.8333321,0-22.25,0C7.8607578,24.8229504,7.8583598,27.0729504,9.308526,27.0729504L9.308526,27.0729504z"/></g><g><path class="st0" d="M8.9332457,33.7684784c6.6250391-0.0340843,13.2500772-0.0681648,19.8751183-0.1022491c0-0.75,0-1.5,0-2.25    c-6.6250401,0.0340824-13.2500782,0.0681667-19.8751183,0.1022491C7.485837,31.5259247,7.4827962,33.7759399,8.9332457,33.7684784    c6.6250391-0.0340843,13.2500772-0.0681648,19.8751183-0.1022491c1.4474087-0.0074463,1.450449-2.2574615,0-2.25    c-6.6250401,0.0340824-13.2500782,0.0681667-19.8751183,0.1022491C7.485837,31.5259247,7.4827962,33.7759399,8.9332457,33.7684784    z"/></g><g><path class="st0" d="M8.683526,40.4479485c6.291666,0,12.583333,0,18.875,0c1.4477673,0,1.4501667-2.25,0-2.25    c-6.291666,0-12.583333,0-18.875,0C7.2357578,38.1979485,7.2333598,40.4479485,8.683526,40.4479485L8.683526,40.4479485z"/></g></g></svg>